<?xml version="1.0" encoding="UTF-8"?>
<!DOCTYPE svg PUBLIC "-//W3C//DTD SVG 1.1//EN" "http://www.w3.org/Graphics/SVG/1.1/DTD/svg11.dtd">
<!-- Creator: CorelDRAW -->
<svg xmlns="http://www.w3.org/2000/svg" xml:space="preserve" width="89.7974mm" height="21.3746mm" version="1.1" style="shape-rendering:geometricPrecision; text-rendering:geometricPrecision; image-rendering:optimizeQuality; fill-rule:evenodd; clip-rule:evenodd"
viewBox="0 0 8979.76 2137.46"
 xmlns:xlink="http://www.w3.org/1999/xlink"
 xmlns:xodm="http://www.corel.com/coreldraw/odm/2003">
 <defs>
  <style type="text/css">
   <![CDATA[
    .fil1 {fill:black;fill-rule:nonzero}
    .fil0 {fill:#1A1A18;fill-rule:nonzero}
    .fil4 {fill:#9B9B9B;fill-rule:nonzero}
    .fil2 {fill:url(#id0)}
    .fil3 {fill:url(#id1)}
   ]]>
  </style>
  <linearGradient id="id0" gradientUnits="userSpaceOnUse" x1="555.88" y1="488.2" x2="758.95" y2="166.15">
   <stop offset="0" style="stop-opacity:1; stop-color:#4B7DC7"/>
   <stop offset="1" style="stop-opacity:1; stop-color:#BC1B8E"/>
  </linearGradient>
  <linearGradient id="id1" gradientUnits="userSpaceOnUse" x1="1753.8" y1="1507.65" x2="8867.46" y2="-141.53">
   <stop offset="0" style="stop-opacity:1; stop-color:#4B7BCE"/>
   <stop offset="1" style="stop-opacity:1; stop-color:#BC1B8E"/>
  </linearGradient>
 </defs>
 <g id="Layer_x0020_1">
  <metadata id="CorelCorpID_0Corel-Layer"/>
  <path class="fil0" d="M1334.09 33.78c-17.93,176.9 -97.93,332.4 -215.75,443.66 -117.95,111.34 -273.7,178.48 -443,178.48 -164.06,0 -315.93,-63.28 -432.87,-169.27 -116.82,-105.86 -198.56,-254.37 -222.56,-424.95l126.87 -19.49c19.38,137.66 85.27,257.43 179.44,342.78 94.03,85.23 216.49,136.1 349.12,136.1 136.67,0 262.29,-54.05 357.24,-143.73 95.12,-89.8 159.69,-215.24 174.13,-357.8l127.36 14.21 0.02 0.01z"/>
  <path class="fil1" d="M1351.69 35.51c-9.03,89.13 -33.46,172.96 -70.25,248.67 -38.11,78.4 -89.54,148.14 -150.95,206.15 -61.52,58.07 -133.12,104.47 -211.5,136.04 -75.92,30.58 -158.13,47.28 -243.6,47.28 -82.93,0 -162.91,-15.77 -237.1,-44.78 -76.37,-29.85 -146.6,-73.82 -207.6,-129.12 -60.86,-55.16 -112.43,-121.58 -151.67,-196.49 -38.03,-72.59 -64.47,-153.17 -76.57,-239.13l-2.42 -17.27 161.82 -24.84 2.5 17.8c9.25,65.72 29.44,127.24 58.38,182.54 29.87,57.07 69.11,107.65 115.38,149.58 46.13,41.82 99.38,75.1 157.37,97.7 56.08,21.87 116.78,33.74 179.91,33.74 64.96,0 127.3,-12.62 184.69,-35.71 59.42,-23.9 113.74,-59.1 160.43,-103.18 46.77,-44.14 85.95,-97.29 114.99,-157 28.14,-57.82 46.79,-121.76 53.66,-189.66l1.81 -17.83 162.52 18.13 -1.76 17.37 -0.04 0.01zm-102.09 233.28c32.66,-67.18 55.08,-141.04 64.94,-219.4l-92.28 -10.3c-8.59,65.68 -27.53,127.57 -54.93,183.87 -30.91,63.53 -72.67,120.12 -122.6,167.26 -49.82,47.06 -107.89,84.65 -171.5,110.23 -61.64,24.82 -128.41,38.36 -197.84,38.36 -67.4,0 -132.41,-12.78 -192.65,-36.25 -62.05,-24.18 -118.97,-59.77 -168.3,-104.49 -49.35,-44.74 -91.18,-98.62 -122.99,-159.4 -28.2,-53.87 -48.55,-113.17 -59.34,-176.26l-91.96 14.11c12.49,75.46 36.59,146.23 70.19,210.37 37.27,71.2 86.27,134.29 144.04,186.64 57.76,52.35 124.35,94.01 196.82,122.34 70.05,27.38 145.68,42.28 224.22,42.28 81,0 158.76,-15.77 230.46,-44.66 74.19,-29.89 142.07,-73.89 200.43,-128.98 58.34,-55.08 107.18,-121.31 143.36,-195.77l-0.07 0.05z"/>
  <path class="fil2" d="M507.94 300.34c0,97.99 75.65,177.41 168.96,177.41 93.31,0 168.96,-79.42 168.96,-177.41 0,-98.01 -75.65,-177.43 -168.96,-177.43 -93.29,0 -168.96,79.42 -168.96,177.43z"/>
  <path class="fil0" d="M1206.73 1416.76c-14.44,-142.58 -79.01,-268.03 -174.13,-357.82 -94.95,-89.68 -220.57,-143.73 -357.24,-143.73 -132.63,0 -255.09,50.85 -349.12,136.08 -94.15,85.31 -160.08,205.12 -179.44,342.8l-126.87 -19.49c24,-170.58 105.74,-319.09 222.56,-424.95 116.94,-105.99 268.81,-169.29 432.87,-169.29 169.33,0 325.06,67.16 443,178.5 117.8,111.26 197.8,266.76 215.75,443.64l-127.38 14.24 0 0.02z"/>
  <path class="fil1" d="M1189.13 1418.48c-6.87,-67.9 -25.54,-131.85 -53.66,-189.68 -29.07,-59.73 -68.24,-112.86 -114.99,-157 -46.69,-44.08 -101,-79.28 -160.43,-103.18 -57.39,-23.1 -119.73,-35.69 -184.69,-35.69 -63.14,0 -123.83,11.9 -179.91,33.74 -57.99,22.58 -111.24,55.88 -157.37,97.68 -46.28,41.93 -85.52,92.49 -115.38,149.55 -28.94,55.32 -49.13,116.84 -58.38,182.56l-2.5 17.8 -161.82 -24.84 2.42 -17.29c12.08,-85.97 38.54,-166.54 76.57,-239.13 39.24,-74.91 90.81,-141.33 151.67,-196.49 61,-55.28 131.26,-99.28 207.6,-129.12 74.19,-29 154.17,-44.8 237.1,-44.8 85.5,0 167.69,16.72 243.6,47.28 78.4,31.59 150.01,77.99 211.52,136.06 61.41,58.01 112.84,127.75 150.95,206.13 36.8,75.71 61.23,159.54 70.25,248.67l1.76 17.37 -162.52 18.15 -1.81 -17.85 0.02 0.08zm-21.83 -205.16c27.4,56.33 46.36,118.21 54.93,183.89l92.31 -10.32c-9.87,-78.36 -32.29,-152.2 -64.94,-219.4 -36.18,-74.44 -85.02,-140.67 -143.34,-195.75 -58.38,-55.12 -126.23,-99.09 -200.45,-129 -71.67,-28.88 -149.43,-44.66 -230.43,-44.66 -78.54,0 -154.17,14.89 -224.22,42.3 -72.47,28.33 -139.03,70.01 -196.79,122.36 -57.76,52.35 -106.77,115.46 -144.04,186.64 -33.6,64.14 -57.7,134.93 -70.19,210.37l91.96 14.11c10.79,-63.12 31.14,-122.42 59.34,-176.3 31.81,-60.8 73.66,-114.68 123.01,-159.4 49.33,-44.72 106.27,-80.31 168.3,-104.47 60.24,-23.49 125.23,-36.25 192.65,-36.25 69.43,0 136.22,13.54 197.86,38.34 63.61,25.6 121.68,63.18 171.5,110.23 49.91,47.12 91.69,103.73 122.58,167.26l-0.04 0.05z"/>
  <path class="fil0" d="M677.37 1308.03c39.55,0 75.42,-16.88 101.39,-44.16 26.3,-27.61 42.56,-65.89 42.56,-108.26 0,-42.4 -16.27,-80.67 -42.54,-108.28 -25.97,-27.26 -61.84,-44.16 -101.39,-44.16 -39.55,0 -75.42,16.88 -101.39,44.16 -26.28,27.61 -42.54,65.89 -42.54,108.28 0,42.38 16.27,80.65 42.56,108.26 25.97,27.28 61.84,44.16 101.39,44.16l-0.04 0zm137.53 -9.79c-35.16,36.92 -83.79,59.77 -137.53,59.77 -53.72,0 -102.38,-22.85 -137.53,-59.77 -34.85,-36.59 -56.43,-87.05 -56.43,-142.64 0,-55.61 21.58,-106.07 56.41,-142.66 35.18,-36.92 83.81,-59.77 137.53,-59.77 53.72,0 102.38,22.85 137.53,59.77 34.83,36.59 56.41,87.05 56.41,142.66 0,55.59 -21.56,106.05 -56.43,142.64l0.04 0z"/>
  <path class="fil3" d="M8972.06 564.58l0 -91.69 -391.68 0 0 91.69 146.31 0 0 458.43 99.07 0 0 -458.43 146.29 0 0.01 0zm-567.33 -91.69l0 417.94 -198.99 -417.94 -132.18 0 0 550.12 96.78 0 0 -417.14 199.01 417.14 132.14 0 0 -550.12 -96.74 0 -0.02 0zm-754.55 0l0 550.12 320.91 0 0 -91.69 -221.8 0 0 -142.05 204.53 0 0 -91.69 -204.53 0 0 -133 221.8 0 0 -91.69 -320.91 0zm-168.55 0l-126.64 458.41 -126.64 -458.41 -103.03 0 156.53 550.12 146.31 0 156.53 -550.12 -103.05 0 -0.01 0zm-730.87 0l0 550.12 320.96 0 0 -91.69 -221.84 0 0 -142.05 204.53 0 0 -91.69 -204.53 0 0 -133 221.84 0 0 -91.69 -320.96 0zm-562.69 0l0 550.12 314.68 0 0 -91.69 -215.54 0 0 -458.41 -99.14 0 0 -0.02zm-382.49 0l-165.16 550.12 103.83 0 33.07 -114.01 194.25 0 33.85 114.01 103.81 0 -165.19 -550.12 -138.46 0zm69.25 85.91l71.59 260.18 -144.73 0 73.15 -260.18 -0.01 0zm-630.16 -85.91l0 550.12 320.91 0 0 -91.69 -221.8 0 0 -142.05 204.49 0 0 -91.69 -204.49 0 0 -133 221.8 0 0 -91.69 -320.91 0zm-511.54 0l0 550.12 99.14 0 0 -181.72 94.4 0 120.35 181.72 118.79 0 -129.78 -196.59c55.03,-20.64 78.66,-66.91 78.66,-132.98l0 -71.87c0,-96.61 -44.86,-148.65 -166.76,-148.65l-214.74 0 -0.06 -0.03zm99.14 91.69l111.71 0c52.7,0 71.57,19.01 71.57,65.27l0 54.5c0,46.26 -17.31,66.85 -71.57,66.85l-111.71 0 0 -186.64 0 0.02zm-661.81 -91.69l0 550.12 314.68 0 0 -91.69 -215.56 0 0 -458.41 -99.12 0 0 -0.02zm-382.47 0l-165.21 550.12 103.81 0 33.07 -114.01 194.29 0 33.85 114.01 103.79 0 -165.14 -550.12 -138.44 0 -0.02 0zm69.23 85.91l71.59 260.18 -144.76 0 73.17 -260.18zm-396.65 -85.91l0 382.43c0,53.68 -24.37,84.26 -94.36,84.26 -70.03,0 -94.44,-30.56 -94.44,-84.26l0 -382.43 -99.12 0 0 390.7c0,86.73 46.42,167.71 193.55,167.71 147.05,0 193.51,-80.98 193.51,-167.71l0 -390.7 -99.16 0 0.02 0zm-754.52 0l0 91.69 146.31 0 0 458.43 99.12 0 0 -458.43 146.31 0 0 -91.69 -391.72 0 -0.02 0zm-444.62 0l0 550.12 99.12 0 0 -181.72 94.4 0 120.3 181.72 118.83 0 -129.8 -196.59c55.05,-20.64 78.66,-66.91 78.66,-132.98l0 -71.87c0,-96.61 -44.84,-148.65 -166.76,-148.65l-214.74 0 -0.01 -0.03zm99.11 91.69l111.69 0c52.7,0 71.61,19.01 71.61,65.27l0 54.5c0,46.26 -17.33,66.85 -71.61,66.85l-111.69 0 0 -186.64 0 0.02zm-320.26 458.43l99.12 0 0 -550.12 -99.12 0 0 550.12zm-172.48 -550.12l-126.64 458.41 -126.62 -458.41 -103.05 0 156.53 550.12 146.31 0 156.53 -550.12 -103.05 0 -0.01 0z"/>
  <path class="fil0" d="M3186.44 1265.91l0 306.66 102.15 0c71.44,0 93.82,-39.16 93.82,-87.96l0 -130.75c0,-48.8 -22.38,-87.96 -93.82,-87.96l-102.15 0 0 0.01zm37.64 35.49l63.14 0c44.37,0 57.41,19.32 57.41,55.2l0 125.27c0,35.9 -13.05,55.2 -57.41,55.2l-63.14 0 0 -235.67zm247.66 192.88l0 -18.79 127.14 0 0 -46.97c0,-46.58 -17.03,-84.7 -80.14,-84.7 -63.63,0 -83.75,37.19 -83.75,83.77l0 67.2c0,50.62 21.5,82.34 84.63,82.34 26.71,0 55.18,-5.09 75.42,-12.92l-4.84 -30.81c-23.24,6.52 -46.46,10.56 -67.49,10.56 -41.74,0 -50.95,-14.21 -50.95,-49.7l-0.02 0.02zm0 -69.42c0,-31.32 12.31,-48.82 46.97,-48.82 34.67,0 44.74,17.5 44.74,48.82l0 18.4 -91.71 0 0 -18.4zm317.88 87.43c0,-44.61 -4.84,-52.45 -66.23,-68.63 -35.92,-9.15 -36.29,-13.83 -36.29,-38.62 0,-20.23 4.35,-28.04 35.92,-28.04 17.52,0 41.25,2.75 59.16,6.4l2.61 -31.71c-17.52,-5.09 -39.9,-7.84 -60.39,-7.84 -56.16,0 -73.68,18.79 -73.68,60.29 0,46.44 4.84,57.95 57.91,71.77 42.87,11.1 44.61,13.83 44.61,37.7 0,24.02 -5.72,30.4 -39.38,30.4 -18.4,0 -42.5,-3.65 -61.02,-9.13l-4.72 30.4c17.03,6.79 45.99,11.88 67.85,11.88 61,0 73.68,-21.15 73.68,-64.86l-0.03 -0.01zm96.55 60.28l0 -224.18 -36.9 0 0 224.18 36.9 0zm0 -260.05l0 -55.71 -36.9 0 0 55.71 36.9 0zm235.36 35.87l-61.39 0c-10.05,-3.26 -24.96,-4.57 -35.92,-4.57 -60.88,0 -83.26,28.06 -83.26,76.86l0 10.05c0,29.5 9.58,51.67 29.82,63.55 -11.43,9.25 -20.27,23.1 -20.27,39.65 0,20.61 10.19,38.11 41.76,40.98 24.96,2.22 32.8,3.14 56.53,5.48 24.98,2.36 31.57,5.48 31.57,24.41 0,23.49 -5.33,31.32 -59.65,31.32 -21.5,0 -49.09,-3.65 -71.44,-9.27l-5.35 30.42c24.12,6.91 57.91,10.56 77.66,10.56 77.17,0 93.33,-16.04 93.33,-64.86 0,-34.05 -14.91,-49.7 -53.43,-53.89 -26.71,-2.75 -38.15,-4.18 -60.51,-6.4 -9.68,-0.92 -14.03,-4.18 -14.03,-12.92 0,-9.66 7.96,-17.5 15.4,-24.02 6.58,1.05 14.03,1.44 21.87,1.44 55.67,0 83.75,-28.04 83.75,-76.47l0 -10.05c-0.49,-17.48 -3.98,-33.15 -11.82,-44.63l25.35 -5.09 0 -22.56 0.03 0.01zm-48.57 72.68l0 9.66c0,29.5 -13.66,44.76 -48.72,44.76 -35.03,0 -48.72,-10.71 -48.72,-44.76l0 -9.66c0,-33.15 13.17,-45.54 48.72,-45.54 35.55,0 48.72,12.92 48.72,45.54zm263.93 151.5l0 -171.73c0,-34.44 -12.31,-57.02 -46.48,-57.02 -25.48,0 -62.25,11.88 -85.99,23.88l-3.49 -19.3 -29.82 0 0 224.18 36.9 0 0 -169.37c22.75,-12.41 55.67,-22.58 71.44,-22.58 13.56,0 20.51,6.01 20.51,20.76l0 171.2 36.9 0 0.03 -0.02zm185.29 90.69l34.67 0 30.19 -90.68 70.58 -224.18 -36.41 0 -59.16 193.37 -58.3 -193.37 -36.41 0 69.33 224.18 15.28 0 -29.82 90.68 0.05 0zm335.76 -170.3l0 -64.98c0,-46.97 -24.59,-84.16 -86.75,-84.16 -62.25,0 -86.87,37.19 -86.87,84.16l0 64.98c0,46.97 24.61,84.16 86.87,84.16 62.13,0 86.75,-37.21 86.75,-84.16zm-36.78 -66.27l0 67.59c0,32.76 -16.66,49.31 -49.97,49.31 -33.41,0 -50.07,-16.57 -50.07,-49.31l0 -67.59c0,-32.76 16.66,-49.33 50.07,-49.33 33.31,0 49.97,16.57 49.97,49.33zm93.83 -78.3l0 171.73c0,34.44 12.18,57.02 46.48,57.02 25.35,0 62.13,-11.88 85.86,-23.88l3.49 19.3 29.82 0 0 -224.18 -36.78 0 0 169.37c-22.87,12.39 -55.67,22.56 -71.46,22.56 -13.66,0 -20.64,-6.01 -20.64,-20.76l0 -171.2 -36.78 0 0.01 0.04zm328.68 -4.57c-21,9.15 -42.99,22.97 -58.77,35.9l-2.11 -31.32 -32.06 0 0 224.18 36.9 0 0 -154.62c17.52,-12.92 40.76,-28.57 60.88,-38.75l-4.84 -35.36 0 -0.03zm303.34 68.51c0,-45.02 -20.12,-68.51 -62.25,-68.51 -27.96,0 -52.94,10.05 -70.58,24.8l-2.97 -20.23 -31.2 0 0 320.34 36.9 -5.48 0 -93.04c17.03,3.79 42.01,6.91 60.88,6.91 49.97,0 69.23,-28.45 69.23,-73.21l0 -91.61 -0.01 0.03zm-130.11 -7.83c15.77,-14.75 39.38,-26.62 60.41,-26.62 25.97,0 32.92,11.49 32.92,34.44l0 91.61c0,27.14 -10.05,39.16 -34.67,39.16 -14.91,0 -39.01,-2.75 -58.64,-6.91l0 -131.67 -0.02 -0.01zm218.21 89.78l0 -18.79 127.14 0 0 -46.97c0,-46.58 -17.03,-84.7 -80.14,-84.7 -63.63,0 -83.75,37.19 -83.75,83.77l0 67.2c0,50.62 21.5,82.34 84.61,82.34 26.73,0 55.18,-5.09 75.42,-12.92l-4.84 -30.81c-23.24,6.52 -46.48,10.56 -67.49,10.56 -41.74,0 -50.95,-14.21 -50.95,-49.7l0 0.02zm0 -69.42c0,-31.32 12.31,-48.82 46.97,-48.82 34.67,0 44.74,17.5 44.74,48.82l0 18.4 -91.71 0 0 -18.4zm277.98 -81.04c-21,9.15 -42.99,22.97 -58.79,35.9l-2.11 -31.32 -32.06 0 0 224.18 36.9 0 0 -154.62c17.52,-12.92 40.76,-28.57 60.88,-38.75l-4.84 -35.36 0.02 -0.03zm161.78 -89.76c-14.42,-4.7 -29.31,-6.52 -43.36,-6.52 -39.38,0 -60.51,19.84 -60.51,59.38l0 41.5 -37.66 0 0 32.22 37.66 0 0 191.95 36.9 0 0 -191.95 57.78 0 3.1 -32.22 -60.88 0 0 -37.7c0,-22.56 5.6,-30.93 28.45,-30.93 9.21,0 24.1,1.83 35.55,4.18l2.97 -29.89 0 -0.02z"/>
  <path class="fil0" d="M6133.62 1494.26l0 -18.79 127.11 0 0 -46.97c0,-46.58 -17.03,-84.7 -80.14,-84.7 -63.63,0 -83.75,37.19 -83.75,83.77l0 67.2c0,50.62 21.5,82.34 84.63,82.34 26.73,0 55.18,-5.09 75.42,-12.92l-4.84 -30.81c-23.24,6.52 -46.46,10.56 -67.46,10.56 -41.76,0 -50.95,-14.21 -50.95,-49.7l-0.02 0.02zm0 -69.42c0,-31.32 12.31,-48.82 46.97,-48.82 34.67,0 44.74,17.5 44.74,48.82l0 18.4 -91.69 0 0 -18.4 -0.02 0zm256.98 152.29c18.77,0 40.27,-3.14 51.32,-6.91l-3.61 -32.22c-16.66,3.77 -31.94,5.09 -46.85,5.09 -36.78,0 -49.09,-10.95 -49.09,-46.05l0 -73.09c0,-35.1 12.31,-46.05 49.09,-46.05 14.91,0 30.19,1.31 46.85,5.09l3.1 -32.22c-10.93,-3.79 -32.06,-6.91 -50.83,-6.91 -66.6,0 -85.13,29.89 -85.13,81.43l0 70.46c0,51.55 16.66,81.43 85.13,81.43l0.02 -0.05zm213.86 -38.24c-13.56,3.79 -24.1,5.62 -34.17,5.62 -19.63,0 -21.87,-8.37 -21.87,-24.92l0 -138.97 57.41 0 3.1 -32.22 -60.51 0 0 -60.82 -36.8 5.62 0 55.2 -37.76 0 0 32.22 37.76 0 0 145.49c0,37.21 17.03,51.03 52.94,51.03 15.77,0 31.57,-3.14 44.74,-8.23l-4.84 -30.03 0 0.01zm213.12 1.97l-58.79 -192.47 -36.41 0 70.58 224.18 49.09 0 70.58 -224.18 -36.41 0 -58.64 192.47zm170.62 31.71l0 -224.18 -36.9 0 0 224.18 36.9 0zm0 -260.05l0 -55.71 -36.9 0 0 55.71 36.9 0zm163.03 31.3c-21,9.15 -42.99,22.97 -58.79,35.9l-2.11 -31.32 -32.06 0 0 224.18 36.9 0 0 -154.62c17.52,-12.92 40.76,-28.57 60.88,-38.75l-4.84 -35.36 0.02 -0.03z"/>
  <path class="fil0" d="M7303.22 1538.89c-13.56,3.79 -24.1,5.62 -34.17,5.62 -19.63,0 -21.89,-8.37 -21.89,-24.92l0 -138.97 57.41 0 3.1 -32.22 -60.51 0 0 -60.82 -36.78 5.62 0 55.2 -37.78 0 0 32.22 37.78 0 0 145.49c0,37.21 17.03,51.03 52.94,51.03 15.77,0 31.57,-3.14 44.74,-8.23l-4.84 -30.03 0 0.01zm53.19 -190.52l0 171.73c0,34.44 12.18,57.02 46.48,57.02 25.35,0 62.13,-11.88 85.86,-23.88l3.49 19.3 29.82 0 0 -224.18 -36.78 0 0 169.37c-22.87,12.39 -55.67,22.56 -71.44,22.56 -13.66,0 -20.64,-6.01 -20.64,-20.76l0 -171.2 -36.8 0 0.01 0.04zm386.96 68.1c0,-47.88 -20.12,-72.67 -81.02,-72.67 -22.87,0 -49.97,4.04 -70.21,9.66l3.98 30.81c16.66,-3.65 43.36,-7.3 64,-7.3 34.67,0 46.48,9.64 46.48,37.7l0 34.97 -57.04 0c-42.87,0 -65.25,16.57 -65.25,63.03 0,39.67 16.66,64.45 56.53,64.45 25.85,0 50.44,-7.3 69.23,-21.15l2.24 16.57 31.08 0 0 -156.08 -0.02 0.01zm-36.78 109.09c-16.29,11.1 -36.8,18.4 -55.3,18.4 -26.21,0 -30.19,-9.13 -30.19,-32.22 0,-22.56 8.33,-29.89 31.2,-29.89l54.32 0 0 43.71 -0.03 0zm138.54 46.97l0 -321.26 -36.9 5.48 0 315.79 36.9 0 0 -0.01zm190.13 -78.29l0 -18.79 127.11 0 0 -46.97c0,-46.58 -17.03,-84.7 -80.14,-84.7 -63.63,0 -83.75,37.19 -83.75,83.77l0 67.2c0,50.62 21.5,82.34 84.61,82.34 26.73,0 55.18,-5.09 75.42,-12.92l-4.84 -30.81c-23.24,6.52 -46.48,10.56 -67.49,10.56 -41.74,0 -50.95,-14.21 -50.95,-49.7l0.03 0.02zm0 -69.42c0,-31.32 12.31,-48.82 46.97,-48.82 34.67,0 44.74,17.5 44.74,48.82l0 18.4 -91.71 0 0 -18.4zm248.65 116l-58.79 -192.47 -36.41 0 70.58 224.18 49.09 0 70.58 -224.18 -36.41 0 -58.64 192.47zm159.54 -46.58l0 -18.79 127.14 0 0 -46.97c0,-46.58 -17.03,-84.7 -80.14,-84.7 -63.63,0 -83.75,37.19 -83.75,83.77l0 67.2c0,50.62 21.5,82.34 84.63,82.34 26.71,0 55.18,-5.09 75.42,-12.92l-4.84 -30.81c-23.24,6.52 -46.48,10.56 -67.49,10.56 -41.74,0 -50.95,-14.21 -50.95,-49.7l-0.02 0.02zm0 -69.42c0,-31.32 12.31,-48.82 46.97,-48.82 34.67,0 44.74,17.5 44.74,48.82l0 18.4 -91.71 0 0 -18.4zm350.81 147.71l0 -171.73c0,-34.44 -12.31,-57.02 -46.48,-57.02 -25.48,0 -62.25,11.88 -85.99,23.88l-3.49 -19.3 -29.82 0 0 224.18 36.9 0 0 -169.37c22.75,-12.41 55.67,-22.58 71.46,-22.58 13.54,0 20.49,6.01 20.49,20.76l0 171.2 36.9 0 0.03 -0.02zm174.33 -33.66c-13.54,3.79 -24.1,5.62 -34.17,5.62 -19.63,0 -21.87,-8.37 -21.87,-24.92l0 -138.97 57.41 0 3.12 -32.22 -60.51 0 0 -60.82 -36.8 5.62 0 55.2 -37.76 0 0 32.22 37.76 0 0 145.49c0,37.21 17.03,51.03 52.94,51.03 15.77,0 31.57,-3.14 44.74,-8.23l-4.84 -30.03 -0.02 0.01z"/>
  <path class="fil4" d="M6620.13 2059.96l30.44 0 -36.76 -247.09 -42.36 0 -118.36 247.09 31.04 0 29.33 -60.14 98.23 0 8.41 60.14 0.03 0zm-30.34 -225.53l18.01 138.68 -82.3 0 64.29 -138.68zm160.72 303.03l29.64 -4.41 12.72 -74.23c11.71,3.06 24.02,4.82 35.75,4.82 54.38,0 69.6,-22.17 77,-66.77l12.02 -71.2c0.7,-4.41 1.01,-10.73 1.01,-14.09 0,-20.82 -9.52,-35.96 -36.04,-35.96 -21.83,0 -44.86,7.06 -64.98,25.56l1.81 -21.87 -25.44 0 -43.47 258.13 -0.02 0.02zm63.17 -203.56c20.53,-18.6 39.65,-31.96 61.89,-31.96 10.6,0 13.72,4.84 13.72,13.76 0,3.26 -0.31,7.06 -1.01,11.47l-11.02 65.62c-6.01,35.65 -14.81,44.59 -45.56,44.59 -9.52,0 -25.44,-1.91 -34.54,-4.51l16.51 -98.95 0.01 -0.02zm232.41 -58.26c-17.93,8.1 -35.24,19.24 -49.07,31.14l3.2 -29.66 -25.82 4.41 -30.03 178.44 29.05 0 20.12 -120.18c16.2,-12.62 34.23,-25.23 53.66,-36.39l-1.11 -27.75 0 -0.01zm70.01 188c53.37,0 73.89,-24.08 80.59,-64.86l9.52 -56.78c1.01,-5.89 1.01,-9.99 1.01,-12.62 0,-30.81 -20.43,-53.72 -59.98,-53.72 -49.48,0 -73.5,22.6 -80.9,66.77l-8.8 52.68c-6.71,38.89 9.52,68.55 58.58,68.55l-0.02 -0.02zm51.97 -66.77c-4.62,27.12 -18.03,40.47 -47.67,40.47 -32.14,0 -37.85,-16 -33.95,-40.8l8.8 -52.37c4.59,-28.18 19.43,-42.28 47.65,-42.28 24.43,0 35.34,9.66 35.34,29.33 0,2.95 -0.31,6.63 -1.01,10.73l-9.21 54.89 0.05 0.03zm235.61 -195.77l-29.74 4.41 -12.72 74.97c-11.61,-3.06 -23.94,-4.84 -35.63,-4.84 -54.38,0 -69.6,22.19 -77,66.77l-12.02 71.18c-0.72,4.41 -1.01,10.73 -1.01,14.09 0,20.82 9.52,35.96 35.94,35.96 21.93,0 45.25,-7.77 65.09,-25.56l-1.81 21.87 25.44 0 43.47 -258.86 -0.01 0.01zm-63.59 206.19c-19.43,16.72 -40.94,30.07 -61.48,30.07 -10.6,0 -13.83,-4.84 -13.83,-13.78 0,-3.26 0.41,-7.04 1.11,-11.47l10.91 -65.72c6.01,-35.53 14.91,-44.47 45.56,-44.47 9.6,0 25.44,1.89 34.65,4.41l-16.92 100.94 0 0.02zm134.58 -130.17l-29.64 4.41 -22.63 134.68c-1.11,5.89 -1.39,11.47 -1.39,15.57 0,19.67 9.21,31.86 30.75,31.86 20.43,0 55.77,-14.4 72.7,-27.01l-1.7 23.34 24.74 0 30.75 -182.85 -30.03 4.41 -20.82 126.17c-21.23,13.66 -47.75,27.01 -64.98,27.01 -8.51,0 -12.02,-2.63 -12.02,-9.99 0,-1.48 0.31,-4.1 0.7,-6.32l23.63 -141.33 -0.06 0.05zm257.94 6.62c-12.41,-5.17 -29.02,-8.1 -41.74,-8.1 -45.56,0 -65.68,16.31 -74.19,66.36l-11.22 67.2c-1.11,6.32 -1.52,11.47 -1.52,14.09 0,24.49 13.83,40.37 46.38,40.37 22.21,0 43.06,-5.58 60.37,-13.66l-3.9 -24.9c-17.31,7.04 -37.74,12.31 -53.37,12.31 -14.81,0 -20.43,-4.51 -20.43,-16 0,-2.63 0.31,-5.15 0.7,-7.77l11.32 -67.51c6.01,-34.17 16.61,-44.16 44.45,-44.16 11.3,0 24.74,2.19 36.76,6.32l6.4 -24.49 -0.01 -0.06zm61.09 179.9c16.92,0 31.84,-4.41 46.67,-12.18l-6.71 -21.15c-12.02,5.58 -22.34,7.77 -31.86,7.77 -6.99,0 -9.91,-2.63 -9.91,-7.77 0,-1.17 0,-1.89 0.41,-4.1l20.53 -121.66 46.56 0 5 -25.23 -47.36 0 8.12 -48.57 -29.64 4.1 -7.4 44.47 -30.44 0 -4.21 25.23 30.34 0 -20.43 121.97c-0.7,4.1 -0.7,6.73 -0.7,8.2 0,16.31 9.83,28.9 31.06,28.9l-0.03 0.02zm159.71 -11.47c20.12,7.36 45.17,11.47 61.78,11.47 54.38,0 71.38,-23.34 78.81,-67.08l12.02 -70.87c0.7,-4.84 1.39,-9.66 1.39,-14.09 0,-20.82 -9.91,-35.96 -36.45,-35.96 -21.83,0 -43.06,7.06 -63.18,24.08l16.61 -98.62 -29.74 4.41 -41.25 246.66 0.01 0zm49.06 -120.92c18.34,-16.31 43.06,-29.33 61.48,-29.33 10.63,0 14.11,4.84 14.11,13.35 0,3.36 -0.7,7.47 -1.39,11.88l-11.02 65.29c-6.01,35.63 -16.92,44.9 -45.56,44.9 -12.02,0 -25.44,-2.22 -34.54,-4.84l16.92 -101.27 0 0.02zm204.18 128.69l59.67 -127.65c5.6,-11.77 6.01,-21.87 6.01,-31.42 0,-8.94 -1.39,-17.46 -2.81,-23.77l-27.94 4.41c1.81,6.32 2.81,14.81 2.81,20.08 0,9.58 -1.01,15.88 -6.32,27.45l-48.76 106.83 -21.93 -158.05 -27.84 4.1 26.83 178.01 10.22 0c-15.92,29.33 -32.14,43.42 -59.67,53.84l7.71 23.34c46.28,-15.98 62.89,-40.47 82.01,-77.19l0.01 0.02zm252.55 0l113.04 -247.09 -31.16 0 -99.63 219.97 -29.64 -219.97 -28.64 0 34.26 247.09 41.76 0 0.01 0zm259.93 0l32.45 0 -45.87 -93.88c32.14,-8.84 41.66,-25.87 46.56,-55.63l6.01 -35.55c0.72,-4.1 1.11,-9.35 1.11,-13.35 0,-30.07 -18.01,-48.68 -62.17,-48.68l-84.1 0 -41.64 247.09 29.64 0 15.22 -89.78 58.97 0 43.86 89.78 -0.04 0zm3.9 -151.73c-4.31,25.64 -15.92,34.48 -44.84,34.48l-57.27 0 16.92 -102.01 57.27 0c24.02,0 34.65,6.01 34.65,23.77 0,2.93 -0.41,6.3 -1.11,10.4l-5.6 33.33 -0.02 0.03zm154 151.73c57.89,0 75.9,-20.82 83.3,-65.29l18.03 -107.57c1.11,-5.89 1.39,-11.47 1.39,-17.03 0,-32.7 -17.62,-57.21 -66.4,-57.21l-79.12 0 -41.35 247.09 84.1 0 0.05 0.01zm54.79 -71.17c-5.31,31.55 -16.64,43.32 -54.79,43.32l-49.87 0 32.14 -191.38 50.15 0c30.75,0 40.66,11.88 40.66,31.55 0,5.89 -0.7,10.4 -1.39,15.24l-16.92 101.27 0.02 0z"/>
 </g>
</svg>
